#Comment line ignore any data following # character 
#Hierarchical Translation and Rotation (.htr) file 
[Header]	
#Header keywords are followed by a single value 
FileType HTR		#Single word string
DataType HTRS		#Translation followed by rotation and scale data
FileVersion 1		#integer
NumSegments 84		#integer
NumFrames 2		#integer
DataFrameRate 30		#integer, data frame rate in this file
EulerRotationOrder ZYX
CalibrationUnits mm
RotationUnits Degrees
GlobalAxisofGravity Y
BoneLengthAxis Y
ScaleFactor 1.00
[SegmentNames&Hierarchy]
#CHILD	PARENT
MASTER GLOBAL
root MASTER
chest root
L_mid_tent01 root
R_mid_tent01 root
spine01 root
Bip01_Neck chest
L_humerus chest
R_humerus chest
weapon_bone chest
Bip01_Head Bip01_Neck
eye_left_bone Bip01_Head
eye_right_bone Bip01_Head
L_forearm L_humerus
L_front_hand L_forearm
L_weapon_bone L_forearm
L_front_hand01_01 L_front_hand
L_front_hand02_01 L_front_hand
L_front_hand03_01 L_front_hand
L_front_hand01_02 L_front_hand01_01
L_front_hand02_02 L_front_hand02_01
L_front_hand03_02 L_front_hand03_01
R_forearm R_humerus
R_front_hand R_forearm
R_weapon_bone R_forearm
R_front_hand01_01 R_front_hand
R_front_hand02_01 R_front_hand
R_front_hand03_01 R_front_hand
R_front_hand01_02 R_front_hand01_01
R_front_hand02_02 R_front_hand02_01
R_front_hand03_02 R_front_hand03_01
null_rope01_connect L_mid_tent01
Rope1_Seg01 null_rope01_connect
Rope1_Seg02 Rope1_Seg01
Rope1_Seg03 Rope1_Seg02
Rope1_Seg04 Rope1_Seg03
Rope1_Seg05 Rope1_Seg04
Rope1_Seg06 Rope1_Seg05
Rope1_Seg07 Rope1_Seg06
Rope1_Seg09 Rope1_Seg07
L_mid_hand01 Rope1_Seg09
L_mid_hand02 Rope1_Seg09
L_mid_hand03 Rope1_Seg09
null_rope02_connect R_mid_tent01
Rope2_Seg01 null_rope02_connect
Rope2_Seg02 Rope2_Seg01
Rope2_Seg03 Rope2_Seg02
Rope2_Seg04 Rope2_Seg03
Rope2_Seg05 Rope2_Seg04
Rope2_Seg06 Rope2_Seg05
Rope2_Seg07 Rope2_Seg06
Rope2_Seg09 Rope2_Seg07
R_mid_hand01 Rope2_Seg09
R_mid_hand02 Rope2_Seg09
R_mid_hand03 Rope2_Seg09
spine02 spine01
spine03 spine02
pelvis spine03
null_rope03_connect pelvis
null_rope04_connect pelvis
Rope3_Seg01 null_rope03_connect
Rope3_Seg02 Rope3_Seg01
Rope3_Seg03 Rope3_Seg02
Rope3_Seg04 Rope3_Seg03
Rope3_Seg05 Rope3_Seg04
Rope3_Seg06 Rope3_Seg05
Rope3_Seg07 Rope3_Seg06
Rope3_Seg08 Rope3_Seg07
Rope3_Seg09 Rope3_Seg08
R_rear_hand01 Rope3_Seg09
R_rear_hand02 Rope3_Seg09
R_rear_hand03 Rope3_Seg09
Rope4_Seg01 null_rope04_connect
Rope4_Seg02 Rope4_Seg01
Rope4_Seg03 Rope4_Seg02
Rope4_Seg04 Rope4_Seg03
Rope4_Seg05 Rope4_Seg04
Rope4_Seg06 Rope4_Seg05
Rope4_Seg07 Rope4_Seg06
Rope4_Seg08 Rope4_Seg07
Rope4_Seg09 Rope4_Seg08
L_rear_hand01 Rope4_Seg09
L_rear_hand02 Rope4_Seg09
L_rear_hand03 Rope4_Seg09
[BasePosition]
#SegmentName Tx, Ty, Tz, Rx, Ry, Rz, BoneLength
MASTER 0.000000 0.000000 0.000000 -90.000000 0.000000 0.000000 10.000000 
root 0.000000 0.000000 0.000000 0.000000 0.000000 0.000000 10.000000 
chest 0.000000 0.000000 0.000000 0.000000 0.000000 0.000000 10.000000 
L_mid_tent01 0.000000 0.000000 0.000000 0.000000 0.000000 0.000000 10.000000 
R_mid_tent01 0.000000 0.000000 0.000000 0.000000 0.000000 0.000000 10.000000 
spine01 0.000000 0.000000 0.000000 0.000000 0.000000 0.000000 10.000000 
Bip01_Neck 0.000000 0.000000 0.000000 0.000000 0.000000 0.000000 10.000000 
L_humerus 0.000000 0.000000 0.000000 0.000000 0.000000 0.000000 10.000000 
R_humerus 0.000000 0.000000 0.000000 0.000000 0.000000 0.000000 10.000000 
weapon_bone 0.000000 0.000000 0.000000 0.000000 0.000000 0.000000 10.000000 
Bip01_Head 0.000000 0.000000 0.000000 0.000000 0.000000 0.000000 10.000000 
eye_left_bone 0.000000 0.000000 0.000000 0.000000 0.000000 0.000000 10.000000 
eye_right_bone 0.000000 0.000000 0.000000 0.000000 0.000000 0.000000 10.000000 
L_forearm 0.000000 0.000000 0.000000 0.000000 0.000000 0.000000 10.000000 
L_front_hand 0.000000 0.000000 0.000000 0.000000 0.000000 0.000000 10.000000 
L_weapon_bone 0.000000 0.000000 0.000000 0.000000 0.000000 0.000000 10.000000 
L_front_hand01_01 0.000000 0.000000 0.000000 0.000000 0.000000 0.000000 10.000000 
L_front_hand02_01 0.000000 0.000000 0.000000 0.000000 0.000000 0.000000 10.000000 
L_front_hand03_01 0.000000 0.000000 0.000000 0.000000 0.000000 0.000000 10.000000 
L_front_hand01_02 0.000000 0.000000 0.000000 0.000000 0.000000 0.000000 10.000000 
L_front_hand02_02 0.000000 0.000000 0.000000 0.000000 0.000000 0.000000 10.000000 
L_front_hand03_02 0.000000 0.000000 0.000000 0.000000 0.000000 0.000000 10.000000 
R_forearm 0.000000 0.000000 0.000000 0.000000 0.000000 0.000000 10.000000 
R_front_hand 0.000000 0.000000 0.000000 0.000000 0.000000 0.000000 10.000000 
R_weapon_bone 0.000000 0.000000 0.000000 0.000000 0.000000 0.000000 10.000000 
R_front_hand01_01 0.000000 0.000000 0.000000 0.000000 0.000000 0.000000 10.000000 
R_front_hand02_01 0.000000 0.000000 0.000000 0.000000 0.000000 0.000000 10.000000 
R_front_hand03_01 0.000000 0.000000 0.000000 0.000000 0.000000 0.000000 10.000000 
R_front_hand01_02 0.000000 0.000000 0.000000 0.000000 0.000000 0.000000 10.000000 
R_front_hand02_02 0.000000 0.000000 0.000000 0.000000 0.000000 0.000000 10.000000 
R_front_hand03_02 0.000000 0.000000 0.000000 0.000000 0.000000 0.000000 10.000000 
null_rope01_connect 0.000000 0.000000 0.000000 0.000000 0.000000 0.000000 10.000000 
Rope1_Seg01 0.000000 0.000000 0.000000 0.000000 0.000000 0.000000 10.000000 
Rope1_Seg02 0.000000 0.000000 0.000000 0.000000 0.000000 0.000000 10.000000 
Rope1_Seg03 0.000000 0.000000 0.000000 0.000000 0.000000 0.000000 10.000000 
Rope1_Seg04 0.000000 0.000000 0.000000 0.000000 0.000000 0.000000 10.000000 
Rope1_Seg05 0.000000 0.000000 0.000000 0.000000 0.000000 0.000000 10.000000 
Rope1_Seg06 0.000000 0.000000 0.000000 0.000000 0.000000 0.000000 10.000000 
Rope1_Seg07 0.000000 0.000000 0.000000 0.000000 0.000000 0.000000 10.000000 
Rope1_Seg09 0.000000 0.000000 0.000000 0.000000 0.000000 0.000000 10.000000 
L_mid_hand01 0.000000 0.000000 0.000000 0.000000 0.000000 0.000000 10.000000 
L_mid_hand02 0.000000 0.000000 0.000000 0.000000 0.000000 0.000000 10.000000 
L_mid_hand03 0.000000 0.000000 0.000000 0.000000 0.000000 0.000000 10.000000 
null_rope02_connect 0.000000 0.000000 0.000000 0.000000 0.000000 0.000000 10.000000 
Rope2_Seg01 0.000000 0.000000 0.000000 0.000000 0.000000 0.000000 10.000000 
Rope2_Seg02 0.000000 0.000000 0.000000 0.000000 0.000000 0.000000 10.000000 
Rope2_Seg03 0.000000 0.000000 0.000000 0.000000 0.000000 0.000000 10.000000 
Rope2_Seg04 0.000000 0.000000 0.000000 0.000000 0.000000 0.000000 10.000000 
Rope2_Seg05 0.000000 0.000000 0.000000 0.000000 0.000000 0.000000 10.000000 
Rope2_Seg06 0.000000 0.000000 0.000000 0.000000 0.000000 0.000000 10.000000 
Rope2_Seg07 0.000000 0.000000 0.000000 0.000000 0.000000 0.000000 10.000000 
Rope2_Seg09 0.000000 0.000000 0.000000 0.000000 0.000000 0.000000 10.000000 
R_mid_hand01 0.000000 0.000000 0.000000 0.000000 0.000000 0.000000 10.000000 
R_mid_hand02 0.000000 0.000000 0.000000 0.000000 0.000000 0.000000 10.000000 
R_mid_hand03 0.000000 0.000000 0.000000 0.000000 0.000000 0.000000 10.000000 
spine02 0.000000 0.000000 0.000000 0.000000 0.000000 0.000000 10.000000 
spine03 0.000000 0.000000 0.000000 0.000000 0.000000 0.000000 10.000000 
pelvis 0.000000 0.000000 0.000000 0.000000 0.000000 0.000000 10.000000 
null_rope03_connect 0.000000 0.000000 0.000000 0.000000 0.000000 0.000000 10.000000 
null_rope04_connect 0.000000 0.000000 0.000000 0.000000 0.000000 0.000000 10.000000 
Rope3_Seg01 0.000000 0.000000 0.000000 0.000000 0.000000 0.000000 10.000000 
Rope3_Seg02 0.000000 0.000000 0.000000 0.000000 0.000000 0.000000 10.000000 
Rope3_Seg03 0.000000 0.000000 0.000000 0.000000 0.000000 0.000000 10.000000 
Rope3_Seg04 0.000000 0.000000 0.000000 0.000000 0.000000 0.000000 10.000000 
Rope3_Seg05 0.000000 0.000000 0.000000 0.000000 0.000000 0.000000 10.000000 
Rope3_Seg06 0.000000 0.000000 0.000000 0.000000 0.000000 0.000000 10.000000 
Rope3_Seg07 0.000000 0.000000 0.000000 0.000000 0.000000 0.000000 10.000000 
Rope3_Seg08 0.000000 0.000000 0.000000 0.000000 0.000000 0.000000 10.000000 
Rope3_Seg09 0.000000 0.000000 0.000000 0.000000 0.000000 0.000000 10.000000 
R_rear_hand01 0.000000 0.000000 0.000000 0.000000 0.000000 0.000000 10.000000 
R_rear_hand02 0.000000 0.000000 0.000000 0.000000 0.000000 0.000000 10.000000 
R_rear_hand03 0.000000 0.000000 0.000000 0.000000 0.000000 0.000000 10.000000 
Rope4_Seg01 0.000000 0.000000 0.000000 0.000000 0.000000 0.000000 10.000000 
Rope4_Seg02 0.000000 0.000000 0.000000 0.000000 0.000000 0.000000 10.000000 
Rope4_Seg03 0.000000 0.000000 0.000000 0.000000 0.000000 0.000000 10.000000 
Rope4_Seg04 0.000000 0.000000 0.000000 0.000000 0.000000 0.000000 10.000000 
Rope4_Seg05 0.000000 0.000000 0.000000 0.000000 0.000000 0.000000 10.000000 
Rope4_Seg06 0.000000 0.000000 0.000000 0.000000 0.000000 0.000000 10.000000 
Rope4_Seg07 0.000000 0.000000 0.000000 0.000000 0.000000 0.000000 10.000000 
Rope4_Seg08 0.000000 0.000000 0.000000 0.000000 0.000000 0.000000 10.000000 
Rope4_Seg09 0.000000 0.000000 0.000000 0.000000 0.000000 0.000000 10.000000 
L_rear_hand01 0.000000 0.000000 0.000000 0.000000 0.000000 0.000000 10.000000 
L_rear_hand02 0.000000 0.000000 0.000000 0.000000 0.000000 0.000000 10.000000 
L_rear_hand03 0.000000 0.000000 0.000000 0.000000 0.000000 0.000000 10.000000 
#Beginning of Data. Separated by tabs
#Fr	Tx	Ty	Tz	Rx	Ry	Rz	SF
[MASTER]
34 0.000000 0.000000 0.000000 0.001660 0.001660 0.001660 0.000000
35 0.000000 0.000000 0.000000 0.001660 0.001660 0.001660 0.000000
[root]
34 -36.414413 8.556567 1487.187012 -91.740158 13.400836 -90.225014 1487.657349
35 -35.646748 7.704998 1490.318115 -91.740158 13.400836 -90.225014 1490.764282
[chest]
34 -84.512650 -34.090519 0.000000 -2.117274 0.462005 -179.268204 91.129311
35 -84.512650 -34.090519 0.000000 -2.117274 0.462005 -179.268204 91.129311
[L_mid_tent01]
34 27.299511 22.177458 -249.918259 -6.542599 6.676075 51.976978 252.381134
35 27.299511 22.177458 -249.918259 -6.886215 5.944851 51.251522 252.381134
[R_mid_tent01]
34 23.228794 24.509907 226.238495 -174.343307 -10.126061 53.192242 228.744751
35 23.228794 24.509907 226.238495 -174.204132 -9.783497 52.512791 228.744751
[spine01]
34 -0.361383 -0.195265 0.000000 -0.000001 -0.000007 22.052340 0.410763
35 -0.361383 -0.195265 0.000000 -0.000001 -0.000007 22.052340 0.410763
[Bip01_Neck]
34 165.484543 71.581718 0.000119 175.896118 1.177290 24.871183 180.302734
35 165.484543 71.581718 0.000119 175.896118 1.177290 24.871183 180.302734
[L_humerus]
34 -13.983130 -135.272980 -120.471481 175.474304 58.687801 -118.474754 181.680161
35 -13.983130 -135.272980 -120.471481 175.474304 58.687801 -118.474754 181.680161
[R_humerus]
34 -13.983309 -135.273102 125.287651 174.588181 -51.786869 -99.934280 184.909012
35 -13.983309 -135.273102 125.287651 174.588181 -51.786880 -99.934280 184.909012
[weapon_bone]
34 235.964890 -300.705902 0.000000 0.000000 -89.951546 -128.212341 382.234833
35 235.964890 -300.705902 0.000000 0.000000 -89.951546 -128.212341 382.234833
[Bip01_Head]
34 163.817291 272.852325 22.822264 1.693472 4.424703 -42.711670 319.069519
35 163.817291 272.852325 22.822264 1.693472 4.424703 -42.711670 319.069519
[eye_left_bone]
34 -24.626970 125.451866 -64.772606 0.000000 -90.000000 -99.840431 143.318359
35 -24.626970 125.451866 -64.772606 0.000000 -90.000000 -99.840431 143.318359
[eye_right_bone]
34 -24.626970 125.451866 64.327362 0.000000 -89.965736 80.156380 143.117676
35 -24.626970 125.451866 64.327362 0.000000 -89.965736 80.156380 143.117676
[L_forearm]
34 322.776093 0.000000 -0.000119 0.000442 -0.002305 -111.718391 322.776093
35 322.776093 0.000000 -0.000119 0.000442 -0.002305 -111.718391 322.776093
[L_front_hand]
34 241.149185 -0.042021 -3.300071 -179.659958 -2.242151 -0.019832 241.171753
35 241.149185 -0.042021 -3.300071 -179.659958 -2.242151 -0.019832 241.171753
[L_weapon_bone]
34 156.183838 0.000000 0.000000 0.000014 0.000007 0.000001 156.183838
35 156.183838 0.000000 0.000000 0.000014 0.000007 0.000001 156.183838
[L_front_hand01_01]
34 86.095154 20.947098 -0.655860 -0.366594 -0.477154 75.385574 88.609184
35 86.095154 20.947098 -0.655860 -0.366594 -0.477154 75.385574 88.609184
[L_front_hand02_01]
34 86.935165 -11.437475 24.513514 154.399796 -59.883835 -61.369587 91.046425
35 86.935165 -11.437475 24.513514 154.399796 -59.883835 -61.369587 91.046425
[L_front_hand03_01]
34 86.637497 -14.123976 -20.424902 -153.913849 58.118122 -62.702866 90.126129
35 86.637497 -14.123976 -20.424902 -153.913849 58.118122 -62.702866 90.126129
[L_front_hand01_02]
34 71.020905 -0.000179 0.000030 0.000334 -0.002323 -106.379684 71.020905
35 71.020905 -0.000179 0.000030 0.000334 -0.002323 -106.379684 71.020905
[L_front_hand02_02]
34 71.020927 -0.000119 0.000060 0.000334 -0.002323 -106.379684 71.020927
35 71.020927 -0.000119 0.000060 0.000334 -0.002323 -106.379684 71.020927
[L_front_hand03_02]
34 71.020905 -0.000060 0.000060 0.000334 -0.002323 -106.379684 71.020905
35 71.020905 -0.000060 0.000060 0.000334 -0.002323 -106.379684 71.020905
[R_forearm]
34 322.776428 -0.000060 0.000030 0.211305 0.032976 -99.623016 322.776428
35 322.776428 -0.000060 0.000030 0.211305 0.032976 -99.623016 322.776428
[R_front_hand]
34 238.847015 -0.006795 2.210259 -0.270529 1.703932 2.322530 238.857239
35 238.847015 -0.006795 2.210259 -0.270529 1.703932 2.322530 238.857239
[R_weapon_bone]
34 155.664093 0.002503 -0.000030 0.003487 0.001180 -90.988930 155.664078
35 155.664093 0.002503 -0.000030 0.003487 0.001180 -90.988930 155.664078
[R_front_hand01_01]
34 87.624611 14.231146 22.918642 -154.633499 -59.950619 61.746044 91.683487
35 87.624611 14.231146 22.918642 -154.633484 -59.950607 61.746033 91.683487
[R_front_hand02_01]
34 89.356956 14.367283 -19.491137 154.602661 58.302849 63.744389 92.579636
35 89.356956 14.367283 -19.491137 154.602661 58.302849 63.744389 92.579636
[R_front_hand03_01]
34 87.286232 -22.307278 -0.143439 0.162155 -0.423168 -75.767921 90.091743
35 87.286232 -22.307278 -0.143439 0.162155 -0.423168 -75.767921 90.091743
[R_front_hand01_02]
34 71.020905 0.000060 0.000119 0.002323 -0.000334 106.381714 71.020905
35 71.020905 0.000060 0.000119 0.002323 -0.000334 106.381714 71.020905
[R_front_hand02_02]
34 71.020844 -0.000030 -0.000119 0.002323 -0.000334 106.381714 71.020836
35 71.020844 -0.000030 -0.000119 0.002323 -0.000334 106.381714 71.020836
[R_front_hand03_02]
34 71.020905 0.000000 0.000030 0.002323 -0.000334 106.381714 71.020905
35 71.020905 0.000000 0.000030 0.002323 -0.000334 106.381714 71.020905
[null_rope01_connect]
34 328.732483 0.000000 -0.000238 162.126160 -79.007629 -137.925201 328.732483
35 328.732483 0.000000 -0.000238 158.764664 -79.277122 -133.825073 328.732483
[Rope1_Seg01]
34 0.000000 0.000000 0.000000 -158.581482 52.375378 -134.414413 0.000000
35 0.000000 0.000000 0.000000 -155.781265 53.541512 -133.287857 0.000000
[Rope1_Seg02]
34 139.999863 -0.000179 0.000000 26.350611 -4.301936 -13.421869 139.999863
35 139.999863 -0.000179 0.000000 25.970030 -4.734004 -13.483408 139.999863
[Rope1_Seg03]
34 139.999924 0.000060 -0.000060 21.759121 -7.712794 -7.345231 139.999924
35 139.999924 0.000060 -0.000060 20.716637 -7.994897 -7.113472 139.999924
[Rope1_Seg04]
34 139.999924 -0.000060 -0.000119 11.388114 -8.017174 -1.401862 139.999924
35 139.999924 -0.000060 -0.000119 10.944179 -8.343586 -1.242372 139.999924
[Rope1_Seg05]
34 139.999832 0.000119 -0.000060 6.712137 -3.873639 -2.203520 139.999832
35 139.999832 0.000119 -0.000060 5.936106 -3.294856 -2.349273 139.999832
[Rope1_Seg06]
34 139.999954 0.000119 -0.000060 9.504020 -2.760787 -5.620947 139.999954
35 139.999954 0.000119 -0.000060 8.459954 -1.148754 -6.399852 139.999954
[Rope1_Seg07]
34 139.999985 0.000060 0.000000 16.375385 -4.468063 -8.563329 139.999985
35 139.999985 0.000060 0.000000 17.549637 -2.051658 -10.403181 139.999985
[Rope1_Seg09]
34 121.602913 0.000119 -0.000089 -89.793175 -1.359789 0.847147 121.602913
35 121.602913 0.000119 -0.000089 -89.793175 -1.359789 0.847147 121.602913
[L_mid_hand01]
34 103.859421 1.038730 8.195221 106.855484 -31.239275 -9.461397 104.187431
35 103.859421 1.038730 8.195221 106.855484 -31.239275 -9.461397 104.187431
[L_mid_hand02]
34 105.572853 -4.139662 -10.864139 -142.331345 25.752670 -28.774628 106.211075
35 105.572853 -4.139662 -10.864139 -142.331345 25.752670 -28.774628 106.211075
[L_mid_hand03]
34 104.641464 17.579376 -3.913581 -16.122810 9.734291 34.223598 106.179977
35 104.641464 17.579376 -3.913581 -16.122810 9.734291 34.223598 106.179977
[null_rope02_connect]
34 328.732849 0.000179 -0.000119 174.026505 80.118553 -28.872627 328.732849
35 328.732849 0.000179 -0.000119 173.119263 80.345078 -30.471022 328.732849
[Rope2_Seg01]
34 0.000000 0.000000 0.000000 135.281006 56.884953 -96.231194 0.000000
35 0.000000 0.000000 0.000000 130.586212 56.476517 -100.875465 0.000000
[Rope2_Seg02]
34 139.999741 -0.000060 -0.000119 1.353463 11.672250 -7.676721 139.999756
35 139.999741 -0.000060 -0.000119 1.594151 11.801744 -8.309450 139.999756
[Rope2_Seg03]
34 140.000107 0.000030 0.000000 11.716551 11.575816 -12.857927 140.000107
35 140.000107 0.000030 0.000000 11.221445 11.250512 -13.147226 140.000107
[Rope2_Seg04]
34 139.999802 0.000000 -0.000060 6.013288 7.064548 -5.444654 139.999802
35 139.999802 0.000000 -0.000060 4.877358 7.256591 -5.360573 139.999802
[Rope2_Seg05]
34 139.999985 -0.000060 0.000119 -42.957047 7.644400 14.529170 139.999985
35 139.999985 -0.000060 0.000119 -36.543377 7.459415 11.802498 139.999985
[Rope2_Seg06]
34 139.999893 -0.000030 -0.000119 -15.224697 -2.596600 10.413441 139.999893
35 139.999893 -0.000030 -0.000119 -15.367578 -0.170567 8.166082 139.999893
[Rope2_Seg07]
34 139.999893 0.000060 -0.000060 -5.884548 -2.345997 5.349758 139.999893
35 139.999893 0.000060 -0.000060 -6.864536 -0.816827 4.456480 139.999893
[Rope2_Seg09]
34 121.338966 0.000089 -0.000060 33.793236 -1.359788 -0.847141 121.338966
35 121.338966 0.000089 -0.000060 33.793236 -1.359788 -0.847141 121.338966
[R_mid_hand01]
34 104.680779 11.144459 -10.335981 -41.523792 25.424656 28.595957 105.778534
35 104.680779 11.144459 -10.335981 -41.523792 25.424656 28.595957 105.778534
[R_mid_hand02]
34 104.070427 2.443552 8.231699 72.847389 -32.746803 10.013901 104.424065
35 104.070427 2.443552 8.231699 72.847389 -32.746803 10.013901 104.424065
[R_mid_hand03]
34 106.028137 -11.221827 -5.996406 -167.901306 10.259192 -37.009720 106.788818
35 106.028137 -11.221827 -5.996406 -167.901306 10.259192 -37.009720 106.788818
[spine02]
34 129.756927 0.001550 0.000119 0.360061 -4.044797 -12.915058 129.756927
35 129.756927 0.001550 0.000119 0.360061 -4.044797 -12.915058 129.756927
[spine03]
34 78.613846 0.087372 -4.898873 1.896495 3.831288 16.473045 78.766380
35 78.613846 0.087372 -4.898873 1.896495 3.831288 16.473045 78.766380
[pelvis]
34 169.435242 0.051022 0.000000 -0.060465 -0.180225 14.087930 169.435257
35 169.435242 0.051022 0.000000 -0.060465 -0.180225 14.087930 169.435257
[null_rope03_connect]
34 -1.257226 -2.466202 137.391083 -159.503860 -89.311867 -163.586563 137.418976
35 -1.257226 -2.466202 137.391083 -159.503860 -89.311867 -163.586563 137.418976
[null_rope04_connect]
34 -1.259640 -2.480268 -137.844437 -159.503860 -89.311867 -163.586563 137.872513
35 -1.259640 -2.480268 -137.844437 -159.503860 -89.311867 -163.586563 137.872513
[Rope3_Seg01]
34 0.000000 0.000000 0.000000 -133.683609 10.937530 -98.244301 0.000000
35 0.000000 0.000000 0.000000 -133.259415 10.552514 -95.413918 0.000000
[Rope3_Seg02]
34 139.999924 -0.000119 0.000060 -3.211910 -5.778033 4.454876 139.999924
35 139.999924 -0.000119 0.000060 -2.794324 -4.537650 5.644831 139.999924
[Rope3_Seg03]
34 139.999924 -0.000119 0.000119 -4.013178 -6.298859 5.974150 139.999924
35 139.999924 -0.000119 0.000119 -3.794891 -4.588755 7.572615 139.999924
[Rope3_Seg04]
34 139.999924 0.000119 0.000000 -5.890907 -6.643316 9.406266 139.999924
35 139.999924 0.000119 0.000000 -5.983971 -4.207170 11.349954 139.999924
[Rope3_Seg05]
34 139.999924 -0.000238 0.000060 0.185632 -8.343316 -9.663228 139.999924
35 139.999924 -0.000238 0.000060 -0.193111 -9.623276 -10.030495 139.999924
[Rope3_Seg06]
34 139.999893 -0.000119 -0.000060 1.425218 -5.606324 -13.234686 139.999893
35 139.999893 -0.000119 -0.000060 1.624752 -7.591943 -14.299732 139.999893
[Rope3_Seg07]
34 139.999771 0.000060 -0.000119 0.681551 -3.650234 -5.475123 139.999771
35 139.999771 0.000060 -0.000119 0.730163 -4.320953 -5.645596 139.999771
[Rope3_Seg08]
34 139.999985 -0.000060 0.000000 0.599188 -2.222805 -3.250470 139.999985
35 139.999985 -0.000060 0.000000 0.640327 -2.582644 -3.302990 139.999985
[Rope3_Seg09]
34 90.185997 -0.000179 -0.000060 89.793228 -1.359877 -0.847183 90.185997
35 90.185997 -0.000179 -0.000060 89.793228 -1.359877 -0.847183 90.185997
[R_rear_hand01]
34 103.366196 -6.073594 -10.757982 -161.551193 16.666374 -30.088671 104.101845
35 103.366196 -6.073594 -10.757982 -161.551193 16.666374 -30.088671 104.101845
[R_rear_hand02]
34 100.509819 12.039542 -7.992327 -34.280552 19.289745 28.875523 101.543350
35 100.509819 12.039542 -7.992327 -34.280552 19.289745 28.875523 101.543350
[R_rear_hand03]
34 101.539970 5.215704 5.435467 83.366440 -30.933914 7.284830 101.819031
35 101.539970 5.215704 5.435467 83.366440 -30.933914 7.284830 101.819031
[Rope4_Seg01]
34 0.000010 0.000038 -0.000114 42.747051 34.110493 -114.324478 0.000121
35 0.000010 0.000038 -0.000114 44.525135 34.987305 -111.189690 0.000121
[Rope4_Seg02]
34 139.999985 0.000060 0.000119 0.033742 0.614123 4.137403 139.999985
35 139.999985 0.000060 0.000119 -0.114906 -0.430352 3.370628 139.999985
[Rope4_Seg03]
34 139.999924 0.000000 -0.000238 -0.187700 0.778467 5.650803 139.999924
35 139.999924 0.000000 -0.000238 -0.267075 -0.675936 4.440735 139.999924
[Rope4_Seg04]
34 139.999985 0.000000 0.000119 -0.846016 -2.238736 7.349400 139.999985
35 139.999985 0.000000 0.000119 -0.463415 -5.323649 4.034446 139.999985
[Rope4_Seg05]
34 139.999802 -0.000060 -0.000119 -0.993344 8.150580 13.868605 139.999802
35 139.999802 -0.000060 -0.000119 -0.333537 7.168785 13.625491 139.999802
[Rope4_Seg06]
34 139.999924 0.000000 0.000060 -1.047137 9.431230 8.991562 139.999924
35 139.999924 0.000000 0.000060 -0.993260 11.539714 12.073397 139.999924
[Rope4_Seg07]
34 139.999802 0.000000 0.000000 -1.710044 3.780515 5.014560 139.999802
35 139.999802 0.000000 0.000000 -1.988882 4.333350 6.072247 139.999802
[Rope4_Seg08]
34 139.999924 0.000000 0.000119 -2.816271 2.052948 2.915347 139.999924
35 139.999924 0.000000 0.000119 -3.075941 2.303349 3.498319 139.999924
[Rope4_Seg09]
34 90.185791 0.000060 0.000060 -135.617828 2.228885 0.850567 90.185791
35 90.185791 0.000060 0.000060 -135.617828 2.228885 0.850567 90.185791
[L_rear_hand01]
34 101.696655 -8.392275 -7.654577 -34.454281 -18.946800 151.655121 102.329041
35 101.696655 -8.392275 -7.654577 -34.454281 -18.946800 151.655121 102.329041
[L_rear_hand02]
34 102.726799 -1.568258 5.773216 83.407906 30.330435 172.796509 102.900848
35 102.726799 -1.568258 5.773216 83.407906 30.330435 172.796509 102.900848
[L_rear_hand03]
34 104.552910 9.721220 -10.420293 -161.379868 -16.473232 -150.512238 105.519653
35 104.552910 9.721220 -10.420293 -161.379868 -16.473232 -150.512238 105.519653
